<svg xmlns="http://www.w3.org/2000/svg" version="1.1" xmlns:xlink="http://www.w3.org/1999/xlink" xmlns:svgjs="http://svgjs.dev/svgjs" width="128" height="128" viewBox="0 0 128 128"><g transform="matrix(0.8046875,0,0,0.8046875,12.333870967741937,12.333870967741937)"><svg viewBox="0 0 155 155" data-background-color="#495054" preserveAspectRatio="xMidYMid meet" height="128" width="128" xmlns="http://www.w3.org/2000/svg" xmlns:xlink="http://www.w3.org/1999/xlink"><g id="tight-bounds" transform="matrix(1,0,0,1,0.25,0.25)"><svg viewBox="0 0 154.5 154.5" height="154.5" width="154.5"><g><svg></svg></g><g><svg viewBox="0 0 154.5 154.5" height="154.5" width="154.5"><g transform="matrix(1,0,0,1,59.016757278,59.39912573961751)"><svg viewBox="0 0 36.46648544399999 35.70174852076498" height="35.70174852076498" width="36.46648544399999"><g><svg viewBox="0 0 36.46648544399999 35.70174852076498" height="35.70174852076498" width="36.46648544399999"><g><svg viewBox="0 0 36.46648544399999 35.70174852076498" height="35.70174852076498" width="36.46648544399999"><g id="textblocktransform"><svg viewBox="0 0 36.46648544399999 35.70174852076498" height="35.70174852076498" width="36.46648544399999" id="textblock"><g><svg viewBox="0 0 36.46648544399999 35.70174852076498" height="35.70174852076498" width="36.46648544399999"><g><svg viewBox="0 0 36.46648544399999 35.70174852076498" height="35.70174852076498" width="36.46648544399999"><g><svg xmlns="http://www.w3.org/2000/svg" xmlns:xlink="http://www.w3.org/1999/xlink" version="1.1" x="0" y="0" viewBox="12.833 13.540000000000003 69.334 67.88" enable-background="new 0 0 95 95" xml:space="preserve" height="35.70174852076498" width="36.46648544399999" class="icon-icon-0" data-fill-palette-color="accent" id="icon-0"><g fill="#c4a20d" data-fill-palette-color="accent"><path d="M35.784 69.836c0.046 0 0.095-0.01 0.143-0.027 0.216 0.019 0.435 0.027 0.656 0.027 4.365 0 7.917-3.552 7.917-7.917 0-0.903-0.159-1.804-0.473-2.675-0.175-0.485-0.397-0.954-0.662-1.395-0.193-0.75-0.065-1.43 0.382-2.02 0.628-0.83 1.848-1.374 3.254-1.48v26.571c0 0.276 0.224 0.5 0.5 0.5s0.5-0.224 0.5-0.5V54.352c1.405 0.105 2.625 0.65 3.252 1.479 0.447 0.59 0.575 1.269 0.382 2.019-0.265 0.44-0.486 0.909-0.662 1.396C50.66 60.116 50.5 61.016 50.5 61.92c0 4.365 3.552 7.917 7.917 7.917 0.216 0 0.429-0.009 0.64-0.026 0.051 0.019 0.104 0.026 0.159 0.026 11.282 0 22.951-9.229 22.951-24.674 0-14.928-14.825-31.623-34.667-31.623S12.833 30.234 12.833 45.162C12.833 60.605 24.502 69.836 35.784 69.836zM48.001 14.552c19.017 0.279 33.166 16.281 33.166 30.61 0 14.743-11.049 23.584-21.788 23.673-0.076-0.032-0.162-0.045-0.246-0.036-0.234 0.024-0.474 0.037-0.716 0.037-3.813 0-6.917-3.104-6.917-6.917 0-0.787 0.141-1.573 0.414-2.337 0.159-0.443 0.365-0.872 0.609-1.271 0.024-0.039 0.043-0.082 0.057-0.127 0.303-1.076 0.119-2.1-0.529-2.955-0.822-1.086-2.313-1.766-4.05-1.877V14.552zM47.001 14.552v38.8c-1.736 0.111-3.229 0.791-4.052 1.877-0.648 0.855-0.832 1.879-0.529 2.955 0.013 0.045 0.031 0.088 0.056 0.127 0.245 0.399 0.451 0.828 0.61 1.271 0.274 0.764 0.414 1.55 0.414 2.337 0 3.813-3.103 6.917-6.917 6.917-0.242 0-0.48-0.013-0.716-0.037-0.065-0.012-0.146 0.008-0.219 0.037-10.747-0.074-21.815-8.918-21.815-23.674C13.833 30.833 27.984 14.83 47.001 14.552z" fill="#000000" data-fill-palette-color="accent"></path></g></svg></g></svg></g></svg></g></svg></g></svg></g></svg></g></svg></g><g></g></svg></g><defs></defs></svg><rect width="154.5" height="154.5" fill="none" stroke="none" visibility="hidden"></rect></g></svg></g></svg>